<svg width="1726" height="1117" viewBox="0 0 1726 1117" fill="none" xmlns="http://www.w3.org/2000/svg">
<mask id="mask0_576_283" style="mask-type:luminance" maskUnits="userSpaceOnUse" x="0" y="0" width="1858" height="1117">
<path d="M1858 1117H0V1.86605e-05H1858V1117Z" fill="white"/>
</mask>
<g mask="url(#mask0_576_283)">
<path d="M-138.049 1260.51H1996.06V-143.514H-138.049V1260.51ZM1998.82 1263.42H-140.814V-146.419H1998.82V1263.42Z" fill="#556B91" fill-opacity="0.05"/>
<path d="M1997.44 1052.38H-139.432V1049.47H1997.44V1052.38Z" fill="#556B91" fill-opacity="0.05"/>
<path d="M1997.44 982.033H-139.432V979.121H1997.44V982.033Z" fill="#556B91" fill-opacity="0.05"/>
<path d="M1997.44 911.686H-139.432V908.774H1997.44V911.686Z" fill="#556B91" fill-opacity="0.05"/>
<path d="M1997.44 841.339H-139.432V838.435H1997.44V841.339Z" fill="#556B91" fill-opacity="0.05"/>
<path d="M1997.44 770.992H-139.432V768.081H1997.44V770.992Z" fill="#556B91" fill-opacity="0.05"/>
<path d="M1997.44 700.646H-139.432V697.741H1997.44V700.646Z" fill="#556B91" fill-opacity="0.05"/>
<path d="M1997.44 630.301H-139.432V627.391H1997.44V630.301Z" fill="#556B91" fill-opacity="0.05"/>
<path d="M1997.44 559.954H-139.432V557.045H1997.44V559.954Z" fill="#556B91" fill-opacity="0.05"/>
<path d="M1997.44 489.608H-139.432V486.699H1997.44V489.608Z" fill="#556B91" fill-opacity="0.05"/>
<path d="M1997.44 419.259H-139.432V416.347H1997.44V419.259Z" fill="#556B91" fill-opacity="0.05"/>
<path d="M1997.44 348.912H-139.432V346.001H1997.44V348.912Z" fill="#556B91" fill-opacity="0.05"/>
<path d="M1997.44 278.566H-139.432V275.654H1997.44V278.566Z" fill="#556B91" fill-opacity="0.05"/>
<path d="M1997.44 208.219H-139.432V205.314H1997.44V208.219Z" fill="#556B91" fill-opacity="0.05"/>
<path d="M1997.44 137.872H-139.432V134.968H1997.44V137.872Z" fill="#556B91" fill-opacity="0.05"/>
<path d="M1997.44 67.5258H-139.432V64.621H1997.44V67.5258Z" fill="#556B91" fill-opacity="0.05"/>
<path d="M1675.05 1261.96H1672.28V-144.97H1675.05V1261.96Z" fill="#556B91" fill-opacity="0.05"/>
<path d="M1610.3 1261.96H1607.53V-144.97H1610.3V1261.96Z" fill="#556B91" fill-opacity="0.05"/>
<path d="M1545.55 1261.96H1542.78V-144.97H1545.55V1261.96Z" fill="#556B91" fill-opacity="0.05"/>
<path d="M1480.79 1261.96H1478.03V-144.97H1480.79V1261.96Z" fill="#556B91" fill-opacity="0.05"/>
<path d="M1416.04 1261.96H1413.27V-144.97H1416.04V1261.96Z" fill="#556B91" fill-opacity="0.05"/>
<path d="M1351.29 1261.96H1348.52V-144.97H1351.29V1261.96Z" fill="#556B91" fill-opacity="0.05"/>
<path d="M1286.53 1261.96H1283.77V-144.97H1286.53V1261.96Z" fill="#556B91" fill-opacity="0.05"/>
<path d="M1221.77 1261.96H1219.01V-144.97H1221.77V1261.96Z" fill="#556B91" fill-opacity="0.05"/>
<path d="M1157.02 1261.96H1154.26V-144.97H1157.02V1261.96Z" fill="#556B91" fill-opacity="0.05"/>
<path d="M1092.27 1261.96H1089.51V-144.97H1092.27V1261.96Z" fill="#556B91" fill-opacity="0.05"/>
<path d="M1027.52 1261.96H1024.75V-144.97H1027.52V1261.96Z" fill="#556B91" fill-opacity="0.05"/>
<path d="M962.763 1261.96H959.995V-144.97H962.763V1261.96Z" fill="#556B91" fill-opacity="0.05"/>
<path d="M898.01 1261.96H895.242V-144.97H898.01V1261.96Z" fill="#556B91" fill-opacity="0.05"/>
<path d="M833.257 1261.96H830.489V-144.97H833.257V1261.96Z" fill="#556B91" fill-opacity="0.05"/>
<path d="M768.504 1261.96H765.736V-144.97H768.504V1261.96Z" fill="#556B91" fill-opacity="0.05"/>
<path d="M703.751 1261.96H700.983V-144.97H703.751V1261.96Z" fill="#556B91" fill-opacity="0.05"/>
<path d="M638.994 1261.96H636.229V-144.97H638.994V1261.96Z" fill="#556B91" fill-opacity="0.05"/>
<path d="M574.24 1261.96H571.475V-144.97H574.24V1261.96Z" fill="#556B91" fill-opacity="0.05"/>
<path d="M509.486 1261.96H506.721V-144.97H509.486V1261.96Z" fill="#556B91" fill-opacity="0.05"/>
<path d="M444.733 1261.96H441.968V-144.97H444.733V1261.96Z" fill="#556B91" fill-opacity="0.05"/>
<path d="M379.979 1261.96H377.215V-144.97H379.979V1261.96Z" fill="#556B91" fill-opacity="0.05"/>
<path d="M315.227 1261.96H312.462V-144.97H315.227V1261.96Z" fill="#556B91" fill-opacity="0.05"/>
<path d="M250.472 1261.96H247.707V-144.97H250.472V1261.96Z" fill="#556B91" fill-opacity="0.05"/>
<path d="M185.72 1261.96H182.955V-144.97H185.72V1261.96Z" fill="#556B91" fill-opacity="0.05"/>
<path d="M120.968 1261.96H118.203V-144.97H120.968V1261.96Z" fill="#556B91" fill-opacity="0.05"/>
<path d="M56.212 1261.96H53.4473V-144.97H56.212V1261.96Z" fill="#556B91" fill-opacity="0.05"/>
</g>
</svg>
